<?xml version="1.0" encoding="UTF-8" standalone="no"?>
<!-- Generator: Adobe Illustrator 15.0.0, SVG Export Plug-In . SVG Version: 6.00 Build 0)  -->

<svg
   xmlns:dc="http://purl.org/dc/elements/1.1/"
   xmlns:cc="http://creativecommons.org/ns#"
   xmlns:rdf="http://www.w3.org/1999/02/22-rdf-syntax-ns#"
   xmlns:svg="http://www.w3.org/2000/svg"
   xmlns="http://www.w3.org/2000/svg"
   xmlns:sodipodi="http://sodipodi.sourceforge.net/DTD/sodipodi-0.dtd"
   xmlns:inkscape="http://www.inkscape.org/namespaces/inkscape"
   version="1.1"
   id="Layer_1"
   x="0px"
   y="0px"
   width="512"
   height="512"
   viewBox="0 0 512 512"
   enable-background="new 0 0 960 480"
   xml:space="preserve"
   inkscape:version="0.91 r13725"
   sodipodi:docname="favicon.svg"><metadata
     id="metadata33"><rdf:RDF><cc:Work
         rdf:about=""><dc:format>image/svg+xml</dc:format><dc:type
           rdf:resource="http://purl.org/dc/dcmitype/StillImage" /><dc:title></dc:title></cc:Work></rdf:RDF></metadata><defs
     id="defs31" /><sodipodi:namedview
     pagecolor="#ffffff"
     bordercolor="#666666"
     borderopacity="1"
     objecttolerance="10"
     gridtolerance="10"
     guidetolerance="10"
     inkscape:pageopacity="0"
     inkscape:pageshadow="2"
     inkscape:window-width="1280"
     inkscape:window-height="961"
     id="namedview29"
     showgrid="false"
     inkscape:zoom="0.65833335"
     inkscape:cx="265.37704"
     inkscape:cy="132.37322"
     inkscape:window-x="1272"
     inkscape:window-y="36"
     inkscape:window-maximized="1"
     inkscape:current-layer="Layer_1" /><path
     style="color:#000000;clip-rule:nonzero;display:inline;overflow:visible;visibility:visible;opacity:0.98999999;isolation:auto;mix-blend-mode:normal;color-interpolation:sRGB;color-interpolation-filters:linearRGB;solid-color:#000000;solid-opacity:1;fill:#000000;fill-opacity:1;fill-rule:nonzero;stroke:none;stroke-width:4;stroke-linecap:round;stroke-linejoin:round;stroke-miterlimit:4;stroke-dasharray:none;stroke-dashoffset:0;stroke-opacity:1;color-rendering:auto;image-rendering:auto;shape-rendering:auto;text-rendering:auto;enable-background:accumulate"
     id="path4161"
     sodipodi:type="arc"
     sodipodi:cx="256"
     sodipodi:cy="256"
     sodipodi:rx="256"
     sodipodi:ry="256"
     sodipodi:start="6.2830282"
     sodipodi:end="6.1843473"
     sodipodi:open="true"
     d="M 512,255.95978 A 256,256 0 0 1 262.35514,511.92111 256,256 0 0 1 0.31353702,268.6662 256,256 0 0 1 237.03045,0.70378736 256,256 0 0 1 510.75059,230.73865" /><path
     d="m 136.2649,97.956102 c 0,1.568409 0.77192,2.355668 2.32166,3.917998 8.52666,4.70525 12.39805,18.82712 12.39805,43.92178 l 0,174.91197 c 0,49.41427 -5.42713,79.2142 -15.49758,89.41197 l -5.42714,4.70525 c 0,1.56842 1.54978,2.35567 4.64927,2.35567 l 61.22433,0 c 0.77787,0 2.32766,-0.78725 3.87139,-0.78725 0,-2.34959 -1.54373,-3.918 -3.87139,-5.48642 -6.97688,-3.91805 -11.62614,-14.90302 -13.17588,-32.16167 -1.54979,-10.19777 -2.32766,-29.80601 -2.32766,-58.03755 l 0,-69.80978 151.90599,0 0,69.80978 c 0,28.23154 -0.77786,47.83978 -1.54977,58.03755 -2.32762,17.2526 -6.97689,28.23758 -13.9478,32.16167 -3.09949,1.56842 -3.87736,3.13683 -3.87736,5.48642 0.77787,0 2.32163,0.78725 3.87736,0.78725 l 61.22435,0 c 3.09952,0 3.87738,-0.78725 3.87738,-2.35567 -1.54977,-1.56841 -3.09953,-3.14288 -3.87738,-4.70525 -10.84828,-10.19777 -16.27542,-39.9977 -16.27542,-89.41197 l 0,-174.91197 c 0,-25.10075 3.87736,-39.21653 12.40402,-43.92178 1.54973,-1.56842 2.32761,-2.349589 2.32761,-3.917998 0,-1.568421 -2.32761,-3.136842 -5.42714,-3.136842 l -24.02421,2.355671 -24.03015,-2.355671 c -3.8714,0 -6.19905,0.78117 -5.42118,3.136842 -0.77186,2.355668 0,3.142878 2.32166,3.917998 8.52666,3.14292 12.40401,18.03986 12.40401,43.92178 l 0,92.55484 -151.90596,0 0,-92.55484 c 0,-25.88192 4.64926,-40.78494 12.39806,-43.92178 1.54974,-0.78117 2.32161,-1.56842 2.32161,-3.917998 0,-2.349592 -1.54375,-3.136842 -5.42114,-3.136842 L 165.7103,97.174931 141.68609,94.81926 c -3.87739,0 -5.42118,1.568421 -5.42118,3.136842 z"
     id="path21-0"
     inkscape:connector-curvature="0"
     style="fill:#f9f9f9;fill-opacity:1" /></svg>