<?xml version="1.0" encoding="UTF-8" standalone="no"?>
<!-- Generator: Adobe Illustrator 15.0.0, SVG Export Plug-In . SVG Version: 6.00 Build 0)  -->

<svg
   xmlns:dc="http://purl.org/dc/elements/1.1/"
   xmlns:cc="http://creativecommons.org/ns#"
   xmlns:rdf="http://www.w3.org/1999/02/22-rdf-syntax-ns#"
   xmlns:svg="http://www.w3.org/2000/svg"
   xmlns="http://www.w3.org/2000/svg"
   xmlns:sodipodi="http://sodipodi.sourceforge.net/DTD/sodipodi-0.dtd"
   xmlns:inkscape="http://www.inkscape.org/namespaces/inkscape"
   version="1.1"
   id="Layer_1"
   x="0px"
   y="0px"
   width="820"
   height="80"
   viewBox="0 0 820 80"
   enable-background="new 0 0 960 480"
   xml:space="preserve"
   inkscape:version="0.48.4 r9939"
   sodipodi:docname="IH [Converted].svg"><metadata
   id="metadata33"><rdf:RDF><cc:Work
       rdf:about=""><dc:format>image/svg+xml</dc:format><dc:type
         rdf:resource="http://purl.org/dc/dcmitype/StillImage" /><dc:title></dc:title></cc:Work></rdf:RDF></metadata><defs
   id="defs31" /><sodipodi:namedview
   pagecolor="#ffffff"
   bordercolor="#666666"
   borderopacity="1"
   objecttolerance="10"
   gridtolerance="10"
   guidetolerance="10"
   inkscape:pageopacity="0"
   inkscape:pageshadow="2"
   inkscape:window-width="1280"
   inkscape:window-height="962"
   id="namedview29"
   showgrid="false"
   inkscape:zoom="1.3166667"
   inkscape:cx="356.02886"
   inkscape:cy="31.898734"
   inkscape:window-x="-8"
   inkscape:window-y="-8"
   inkscape:window-maximized="1"
   inkscape:current-layer="Layer_1" />
<g
   id="g3"
   transform="matrix(1.4159977,0,0,1.4330497,-253.60519,-293.30515)">
	<g
   id="g5">
		<path
   d="m 574.792,205.968 h -17.615 c -1.166,0 -1.684,0.259 -1.684,0.777 0,0.129 0.13,0.518 0.518,0.907 0.907,0.518 1.425,1.295 1.684,2.461 0.389,1.295 0.647,3.756 0.647,7.253 v 27.848 c -0.129,4.533 -0.258,7.382 -0.518,8.807 -0.389,1.425 -1.295,2.85 -2.72,4.145 -0.518,0.388 -0.648,0.647 -0.648,0.906 0,0.13 0.13,0.13 0.389,0.259 l 22.407,-0.259 c 5.699,-0.777 10.362,-3.756 13.73,-8.678 3.497,-5.052 5.181,-11.269 5.181,-18.781 0,-7.124 -1.813,-13.082 -5.44,-17.745 -3.886,-5.31 -9.195,-7.9 -15.931,-7.9 z m -11.527,2.072 h 9.714 c 5.829,0 10.232,1.813 12.823,5.311 2.85,3.626 4.145,9.714 4.274,18.133 0,8.678 -1.295,15.025 -3.756,19.169 -2.202,3.498 -5.569,5.57 -9.844,6.088 l -4.404,0.259 -5.311,-0.389 c -1.295,-0.129 -2.202,-1.166 -2.72,-2.72 -0.519,-1.942 -0.777,-5.181 -0.777,-10.103 V 208.04 z"
   id="path7"
   inkscape:connector-curvature="0"
   style="fill:#282828" />
		<path
   d="m 629.192,205.968 h -17.615 c -1.166,0 -1.813,0.259 -1.813,0.777 0,0.129 0.259,0.388 0.777,0.907 1.295,0.906 2.072,4.145 2.072,9.714 v 27.848 c 0,4.533 -0.129,7.382 -0.519,8.807 -0.259,1.425 -1.166,2.85 -2.719,4.145 -0.389,0.259 -0.519,0.647 -0.519,0.906 0,0.13 0.13,0.13 0.259,0.259 l 22.408,-0.259 c 5.829,-0.777 10.362,-3.756 13.859,-8.678 3.498,-5.052 5.181,-11.269 5.181,-18.781 0,-7.124 -1.813,-13.082 -5.44,-17.745 -3.885,-5.31 -9.195,-7.9 -15.931,-7.9 z m -11.657,2.072 h 9.714 c 5.828,0 10.232,1.813 12.952,5.311 2.72,3.626 4.145,9.714 4.145,18.133 0,8.678 -1.167,15.025 -3.757,19.169 -2.202,3.498 -5.439,5.57 -9.843,6.088 l -4.274,0.259 -5.44,-0.389 c -1.295,-0.129 -2.202,-1.166 -2.59,-2.72 -0.647,-1.942 -0.907,-5.181 -0.907,-10.103 V 208.04 z"
   id="path9"
   inkscape:connector-curvature="0"
   style="fill:#282828" />
		<path
   d="m 684.758,205.19 c -0.13,-0.259 -0.259,-0.518 -0.389,-0.518 h -0.129 c -0.13,0 -0.259,0.259 -0.389,0.518 l -15.024,39.764 c -2.461,6.087 -4.404,9.973 -5.958,12.045 l -0.777,0.777 -0.518,0.777 c 0,0.259 0.389,0.518 1.166,0.518 h 8.16 c 0.518,0 0.777,-0.129 0.906,-0.388 -0.129,-0.13 -0.259,-0.389 -0.647,-0.518 l -1.036,-0.907 c -0.907,-1.036 -1.425,-2.202 -1.425,-3.498 0,-2.59 0.907,-6.087 2.59,-10.491 l 3.626,-9.974 h 14.637 l 3.756,10.88 c 1.813,5.051 2.72,8.678 2.72,10.621 0,1.554 -0.259,2.461 -1.037,2.979 -0.647,0.518 -1.036,0.777 -1.036,1.037 0.129,0.129 0.259,0.259 0.518,0.259 h 11.139 c 0.389,0 0.518,-0.259 0.648,-0.518 -0.259,-0.259 -0.648,-0.518 -0.907,-0.907 -1.554,-1.554 -2.849,-3.497 -3.626,-5.829 L 684.758,205.19 z m 4.145,26.035 h -13.341 l 6.995,-17.744 6.346,17.744 z"
   id="path11"
   inkscape:connector-curvature="0"
   style="fill:#282828" />
		<path
   d="m 718.045,207.652 c 0.906,0.518 1.425,1.295 1.684,2.461 0.389,1.295 0.518,3.756 0.518,7.253 v 27.848 c 0,4.533 -0.129,7.382 -0.388,8.807 -0.389,1.425 -1.295,2.85 -2.72,4.145 -0.518,0.388 -0.777,0.647 -0.648,0.906 0,0.13 0.13,0.13 0.389,0.259 l 22.407,-0.259 c 5.699,-0.777 10.232,-3.756 13.729,-8.678 3.497,-5.052 5.181,-11.269 5.181,-18.781 -0.13,-7.124 -1.813,-13.082 -5.44,-17.745 -3.886,-5.311 -9.196,-7.901 -15.931,-7.901 h -17.615 c -1.166,0 -1.684,0.259 -1.684,0.777 0,0.131 0.13,0.519 0.518,0.908 z m 7.254,0.388 h 9.584 c 5.958,0 10.232,1.813 12.953,5.311 2.849,3.626 4.144,9.714 4.144,18.133 0,8.678 -1.166,15.025 -3.626,19.169 -2.202,3.498 -5.569,5.57 -9.974,6.088 l -4.274,0.259 -5.311,-0.389 c -1.425,-0.129 -2.331,-1.166 -2.72,-2.72 -0.648,-1.942 -0.906,-5.181 -0.777,-10.103 V 208.04 z"
   id="path13"
   inkscape:connector-curvature="0"
   style="fill:#282828" />
		<path
   d="m 534.122,254.798 c 0,1.554 -0.389,2.461 -1.166,2.979 -0.648,0.518 -1.037,0.777 -1.037,1.037 0,0.129 0.259,0.259 0.518,0.259 h 11.139 c 0.389,0 0.518,-0.259 0.648,-0.518 -0.259,-0.259 -0.648,-0.518 -0.906,-0.907 -1.684,-1.554 -2.85,-3.497 -3.627,-5.829 l -16.968,-46.628 c -0.129,-0.259 -0.259,-0.518 -0.389,-0.518 h -0.129 c -0.13,0.13 -0.259,0.259 -0.259,0.518 l -15.154,39.764 c -2.461,6.087 -4.404,10.103 -5.958,12.045 l -0.777,0.777 -0.388,0.777 c -0.129,0.259 0.259,0.518 1.036,0.518 h 8.16 c 0.647,0 0.906,-0.129 0.906,-0.388 0,-0.13 -0.129,-0.389 -0.518,-0.518 l -1.036,-0.907 c -1.037,-1.036 -1.555,-2.202 -1.555,-3.498 0,-2.59 0.907,-6.087 2.59,-10.491 l 3.627,-9.974 h 14.636 l 3.756,10.88 c 1.814,5.182 2.721,8.679 2.851,10.622 z m -7.124,-23.573 h -13.341 l 6.865,-17.744 6.476,17.744 z"
   id="path15"
   inkscape:connector-curvature="0"
   style="fill:#282828" />
		<path
   d="m 336.728,204.672 c -4.792,0 -9.196,2.332 -13.341,6.865 -4.921,5.439 -7.382,12.175 -7.382,20.335 0,8.548 2.331,15.542 6.735,20.983 4.274,5.051 9.584,7.642 15.802,7.642 6.087,0 11.787,-2.461 16.838,-7.383 v -16.061 c 0,-1.943 0.906,-3.368 2.849,-4.274 0.259,0 0.389,-0.259 0.389,-0.518 0,-0.389 -0.389,-0.647 -1.166,-0.647 l -4.922,0.388 -8.29,-0.388 c -0.777,0 -1.166,0.259 -1.166,0.518 0,0.129 0.129,0.258 0.129,0.388 3.108,0.907 4.922,1.813 5.569,2.72 0.777,1.036 1.036,3.626 1.036,7.512 v 6.995 c 0,3.108 -1.295,5.31 -3.626,6.864 -2.073,1.166 -4.404,1.813 -7.124,1.813 -5.181,0 -9.326,-2.202 -12.434,-6.735 -2.979,-4.404 -4.533,-10.621 -4.533,-18.652 0,-7.9 1.295,-14.118 3.885,-18.651 2.85,-5.051 6.994,-7.512 12.564,-7.512 2.979,0 5.828,1.036 8.548,2.979 2.591,2.072 4.534,4.792 5.44,8.16 0.259,0.647 0.518,1.295 0.518,1.684 0.389,-0.518 0.519,-0.777 0.648,-1.166 l 1.684,-6.865 c -4.014,-4.662 -10.231,-6.994 -18.65,-6.994 z"
   id="path17"
   inkscape:connector-curvature="0"
   style="fill:#282828" />
		<path
   d="m 372.735,206.356 c -0.777,0 -1.166,0.129 -1.166,0.518 0,0.13 0.13,0.388 0.518,0.518 1.425,1.036 2.072,3.498 2.072,7.383 V 243.4 c 0,8.678 -1.037,13.471 -2.979,14.248 -0.647,0.129 -0.906,0.519 -0.906,0.907 0,0.259 0.259,0.389 0.777,0.518 h 34.972 l 2.46,-11.009 c 0,-0.259 -0.129,-0.389 -0.389,-0.389 -0.129,0 -0.389,0.13 -0.389,0.389 -1.166,1.943 -2.331,3.497 -3.497,4.403 -3.756,2.85 -9.325,4.275 -16.838,4.275 -3.108,0 -5.051,-0.13 -5.958,-0.648 -1.166,-0.647 -1.684,-2.072 -1.813,-4.145 l -0.518,-20.076 h 5.699 c 6.735,0 11.01,0.907 12.953,2.59 0.647,0.777 1.295,1.813 1.813,3.368 0.129,0.13 0.259,0.259 0.389,0.388 0.129,0 0.259,-0.388 0.259,-1.295 v -12.045 c 0,-0.907 -0.13,-1.295 -0.259,-1.295 -0.259,0.129 -0.389,0.259 -0.389,0.388 -0.519,1.425 -1.037,2.59 -1.684,3.498 -1.036,1.554 -5.439,2.331 -13.082,2.331 h -5.699 v -21.242 h 10.492 c 7.512,0 12.434,2.59 15.024,7.771 0.13,0.259 0.259,0.647 0.648,0.777 0.129,0 0.258,-0.13 0.258,-0.259 l -2.072,-10.491 h -30.696 z"
   id="path19"
   inkscape:connector-curvature="0"
   style="fill:#282828" />
		<path
   d="m 448.119,206.486 c 0,0.259 0.129,0.389 0.388,0.647 1.425,0.777 2.072,3.109 2.072,7.253 v 28.884 c 0,8.16 -0.907,13.081 -2.59,14.765 l -0.907,0.777 c 0,0.259 0.259,0.389 0.777,0.389 h 10.232 c 0.13,0 0.389,-0.13 0.647,-0.13 0,-0.388 -0.258,-0.647 -0.647,-0.906 -1.166,-0.647 -1.943,-2.461 -2.202,-5.311 -0.259,-1.684 -0.389,-4.922 -0.389,-9.584 v -11.528 h 25.387 v 11.528 c 0,4.662 -0.13,7.9 -0.259,9.584 -0.389,2.849 -1.166,4.663 -2.331,5.311 -0.518,0.259 -0.648,0.518 -0.648,0.906 0.13,0 0.388,0.13 0.648,0.13 h 10.232 c 0.518,0 0.648,-0.13 0.648,-0.389 -0.259,-0.259 -0.518,-0.519 -0.648,-0.777 -1.813,-1.684 -2.72,-6.605 -2.72,-14.765 v -28.884 c 0,-4.145 0.648,-6.476 2.073,-7.253 0.259,-0.259 0.389,-0.388 0.389,-0.647 0,-0.259 -0.389,-0.518 -0.907,-0.518 l -4.015,0.389 -4.016,-0.389 c -0.647,0 -1.036,0.129 -0.906,0.518 -0.129,0.389 0,0.519 0.388,0.647 1.425,0.519 2.073,2.979 2.073,7.253 v 15.284 h -25.387 v -15.284 c 0,-4.274 0.777,-6.735 2.072,-7.253 0.259,-0.129 0.388,-0.259 0.388,-0.647 0,-0.388 -0.258,-0.518 -0.906,-0.518 l -4.015,0.389 -4.015,-0.389 c -0.648,0 -0.906,0.259 -0.906,0.518 z"
   id="path21"
   inkscape:connector-curvature="0"
   style="fill:#282828" />
		<path
   d="m 187.517,214.387 c 0,-4.274 0.777,-6.735 2.202,-7.253 0.13,-0.129 0.389,-0.388 0.389,-0.647 0,-0.389 -0.389,-0.518 -1.036,-0.518 l -4.015,0.389 -4.015,-0.389 c -0.648,0 -0.907,0.259 -0.907,0.518 0,0.259 0.129,0.389 0.389,0.647 1.425,0.777 2.202,3.109 2.202,7.253 v 28.884 c 0,8.16 -0.906,13.081 -2.72,14.765 l -0.906,0.777 c 0,0.259 0.259,0.389 0.648,0.389 h 10.362 c 0.13,0 0.389,-0.13 0.648,-0.13 0,-0.388 -0.259,-0.647 -0.648,-0.906 -1.166,-0.647 -1.943,-2.461 -2.202,-5.311 -0.259,-1.684 -0.389,-4.922 -0.389,-9.584 v -28.884 z"
   id="path23"
   inkscape:connector-curvature="0"
   style="fill:#282828" />
		<path
   d="m 204.225,207.393 c 0.907,0.647 1.425,1.555 1.813,2.72 0.259,1.166 0.389,3.108 0.518,5.829 V 243.4 c 0,6.995 -1.166,11.657 -3.238,14.248 -0.648,0.647 -1.036,1.037 -1.036,1.037 0,0.388 0.259,0.388 0.648,0.388 l 4.533,-0.259 3.498,0.259 c 0.777,0 1.166,0 1.166,-0.259 0,-0.259 -0.259,-0.647 -0.777,-1.166 -1.036,-1.036 -1.813,-2.202 -2.202,-3.367 -0.518,-1.943 -0.906,-4.792 -0.906,-8.549 v -33.158 h 0.13 L 223.265,257 c 0.648,1.684 1.036,2.461 1.166,2.59 0.389,-0.129 0.777,-0.777 1.425,-2.202 l 15.413,-45.463 h 0.259 v 34.842 c -0.129,5.311 -0.648,8.678 -1.684,10.232 -0.259,0.389 -0.648,0.777 -1.166,1.166 -0.259,0.129 -0.518,0.259 -0.648,0.388 0,0.389 0.13,0.518 0.389,0.518 h 10.75 c 0.518,0 0.777,-0.129 0.777,-0.518 0,-0.129 -0.259,-0.388 -0.777,-0.907 -0.777,-0.518 -1.166,-1.166 -1.425,-2.072 -0.906,-2.979 -1.295,-7.901 -1.295,-14.637 v -26.552 c 0,-3.626 0.518,-5.958 1.685,-6.865 0.129,-0.129 0.258,-0.259 0.517,-0.389 0.13,0 0.259,-0.129 0.259,-0.388 0,-0.259 -0.259,-0.389 -0.907,-0.389 h -6.476 l -14.896,42.224 -14.765,-42.354 c -0.259,-0.13 -0.648,-0.259 -1.036,-0.259 l -2.72,0.389 -3.756,-0.389 c -0.648,0.129 -0.906,0.259 -0.906,0.518 0,0.132 0.259,0.521 0.777,0.91 z"
   id="path25"
   inkscape:connector-curvature="0"
   style="fill:#282828" />
		<path
   d="m 282.975,204.672 c -0.259,0.13 -0.388,0.259 -0.517,0.518 l -15.026,39.764 c -2.46,6.087 -4.403,10.103 -5.958,12.045 l -1.166,1.554 c 0,0.259 0.389,0.518 1.037,0.518 h 8.16 c 0.648,0 0.906,-0.129 0.906,-0.388 0,-0.13 -0.258,-0.389 -0.647,-0.518 l -0.906,-0.907 c -1.037,-1.036 -1.555,-2.202 -1.555,-3.498 0,-2.59 0.907,-6.087 2.461,-10.491 l 3.756,-9.974 h 14.637 l 3.756,10.88 c 1.813,5.181 2.72,8.678 2.72,10.621 0,1.425 -0.259,2.461 -0.907,2.979 -0.777,0.518 -1.166,0.907 -1.166,1.037 0.129,0.129 0.259,0.259 0.518,0.259 h 11.139 c 0.388,0 0.518,-0.259 0.518,-0.518 -0.129,-0.259 -0.388,-0.518 -0.777,-0.907 -1.554,-1.554 -2.85,-3.497 -3.626,-5.829 l -16.968,-46.628 c -0.13,-0.257 -0.259,-0.517 -0.389,-0.517 l 0,0 z m 4.663,26.553 h -13.341 l 6.865,-17.744 6.476,17.744 z"
   id="path27"
   inkscape:connector-curvature="0"
   style="fill:#282828" />
	</g>
</g>
</svg>